<?xml version="1.0" encoding="UTF-8"?>
<svg id="Camada_1" data-name="Camada 1" xmlns="http://www.w3.org/2000/svg" viewBox="0 0 501.34 69.97">
  <defs>
    <style>
      .cls-1 {
        fill: #2a3148;
        stroke-width: 0px;
      }
    </style>
  </defs>
  <path class="cls-1" d="M190.36,56.11v-15.56h31.21v-12.1h-31.21v-.09h-15.46v40.22h52.04v-12.48h-36.58ZM190.36,13.86h36.58V1.38h-52.04v12.49h15.46Z"/>
  <path class="cls-1" d="M464.75,56.11v-15.56h31.21v-12.1h-31.21v-.09h-15.46v40.22h52.04v-12.48h-36.58ZM464.75,13.86h36.58V1.38h-52.04v12.49h15.46Z"/>
  <path class="cls-1" d="M409.59,1.16h15.66v67.65h-15.66V1.16Z"/>
  <path class="cls-1" d="M37.02,0v13.35c12.08,0,21.16,8.79,21.16,21.64s-9.08,21.65-21.16,21.65-21.17-8.8-21.17-21.65H0c0,20.11,15.65,34.99,37.02,34.99s37.01-14.78,37.01-34.99S58.27,0,37.02,0Z"/>
  <path class="cls-1" d="M294.62,47.07c4.91-2.1,8.67-5.35,11.04-9.58,1.88-3.34,2.88-7.3,2.88-11.79s-.97-8.42-2.82-11.79c-4.41-8.09-13.79-12.75-26.55-12.75h-29.28v12.75h28.42c9.56,0,14.4,4.35,14.4,11.79s-4.83,11.79-14.4,11.79h-28.42v31.32h15.65v-18.85h14.4l13.05,18.85h16.82l-15.17-21.74Z"/>
  <path class="cls-1" d="M349.61,13.92h-21.65V1.16h58.95v12.76h-21.65v54.89h-15.66V13.92Z"/>
  <path class="cls-1" d="M157.89,1.16l-29.28,67.65h-15.46L83.96,1.16h16.91l20.59,48.32L142.33,1.16h15.56Z"/>
</svg>